<mxfile host="65bd71144e">
    <diagram id="0n_cL0NZFOze88hHiqRF" name="Page-1">
        <mxGraphModel dx="4084" dy="1449" grid="0" gridSize="10" guides="1" tooltips="1" connect="1" arrows="1" fold="1" page="0" pageScale="1" pageWidth="850" pageHeight="1100" background="#ffffff" math="0" shadow="0">
            <root>
                <mxCell id="0"/>
                <mxCell id="1" parent="0"/>
                <mxCell id="546" value="" style="rounded=1;whiteSpace=wrap;html=1;dashed=1;fillColor=none;strokeColor=#FF6666;" vertex="1" parent="1">
                    <mxGeometry x="-1006" y="600" width="520" height="588" as="geometry"/>
                </mxCell>
                <mxCell id="479" style="edgeStyle=none;html=1;exitX=0.5;exitY=1;exitDx=0;exitDy=0;entryX=0.5;entryY=0;entryDx=0;entryDy=0;strokeColor=#000000;fontColor=#000000;" edge="1" parent="1" source="462" target="468">
                    <mxGeometry relative="1" as="geometry"/>
                </mxCell>
                <mxCell id="462" value="&lt;font color=&quot;#000000&quot;&gt;Upper Reward Limiter&lt;/font&gt;" style="rounded=1;whiteSpace=wrap;html=1;fillColor=none;strokeColor=#000000;" vertex="1" parent="1">
                    <mxGeometry x="-666" y="634" width="120" height="60" as="geometry"/>
                </mxCell>
                <mxCell id="478" style="edgeStyle=none;html=1;exitX=0.5;exitY=1;exitDx=0;exitDy=0;entryX=0.5;entryY=0;entryDx=0;entryDy=0;strokeColor=#000000;fontColor=#000000;" edge="1" parent="1" source="463" target="469">
                    <mxGeometry relative="1" as="geometry"/>
                </mxCell>
                <mxCell id="463" value="&lt;span style=&quot;color: rgb(0, 0, 0);&quot;&gt;Lower Reward Limiter&lt;/span&gt;" style="rounded=1;whiteSpace=wrap;html=1;fillColor=none;strokeColor=#000000;" vertex="1" parent="1">
                    <mxGeometry x="-826" y="634" width="120" height="60" as="geometry"/>
                </mxCell>
                <mxCell id="474" style="edgeStyle=none;html=1;exitX=0.5;exitY=1;exitDx=0;exitDy=0;entryX=0.5;entryY=0;entryDx=0;entryDy=0;strokeColor=#000000;fontColor=#000000;" edge="1" parent="1" source="464" target="462">
                    <mxGeometry relative="1" as="geometry">
                        <Array as="points">
                            <mxPoint x="-688" y="593"/>
                            <mxPoint x="-606" y="595"/>
                        </Array>
                    </mxGeometry>
                </mxCell>
                <mxCell id="475" style="edgeStyle=none;html=1;exitX=0.5;exitY=1;exitDx=0;exitDy=0;entryX=0.5;entryY=0;entryDx=0;entryDy=0;strokeColor=#000000;fontColor=#000000;" edge="1" parent="1" source="464" target="463">
                    <mxGeometry relative="1" as="geometry">
                        <Array as="points">
                            <mxPoint x="-688" y="593"/>
                            <mxPoint x="-766" y="593"/>
                        </Array>
                    </mxGeometry>
                </mxCell>
                <mxCell id="464" value="Reward" style="text;html=1;strokeColor=none;fillColor=none;align=center;verticalAlign=middle;whiteSpace=wrap;rounded=0;fontColor=#000000;" vertex="1" parent="1">
                    <mxGeometry x="-718" y="535" width="60" height="30" as="geometry"/>
                </mxCell>
                <mxCell id="476" style="edgeStyle=none;html=1;exitX=0.5;exitY=1;exitDx=0;exitDy=0;entryX=1;entryY=0.5;entryDx=0;entryDy=0;strokeColor=#000000;fontColor=#000000;" edge="1" parent="1" source="465" target="468">
                    <mxGeometry relative="1" as="geometry">
                        <Array as="points">
                            <mxPoint x="-430" y="767"/>
                        </Array>
                    </mxGeometry>
                </mxCell>
                <mxCell id="477" style="edgeStyle=none;html=1;exitX=0.5;exitY=1;exitDx=0;exitDy=0;entryX=1;entryY=0.5;entryDx=0;entryDy=0;strokeColor=#000000;fontColor=#000000;" edge="1" parent="1" source="465" target="469">
                    <mxGeometry relative="1" as="geometry">
                        <Array as="points">
                            <mxPoint x="-430" y="707"/>
                            <mxPoint x="-687" y="707"/>
                            <mxPoint x="-687" y="767"/>
                        </Array>
                    </mxGeometry>
                </mxCell>
                <mxCell id="465" value="(State-Action)&lt;br&gt;pair" style="text;html=1;strokeColor=none;fillColor=none;align=center;verticalAlign=middle;whiteSpace=wrap;rounded=0;fontColor=#000000;" vertex="1" parent="1">
                    <mxGeometry x="-492" y="535" width="124.5" height="30" as="geometry"/>
                </mxCell>
                <mxCell id="492" style="edgeStyle=none;html=1;exitX=0.25;exitY=1;exitDx=0;exitDy=0;entryX=1;entryY=0.5;entryDx=0;entryDy=0;strokeColor=#000000;fontColor=#000000;endArrow=classic;endFill=1;" edge="1" parent="1" source="468" target="497">
                    <mxGeometry relative="1" as="geometry">
                        <Array as="points">
                            <mxPoint x="-636" y="967"/>
                        </Array>
                    </mxGeometry>
                </mxCell>
                <mxCell id="496" style="edgeStyle=none;html=1;exitX=0.75;exitY=1;exitDx=0;exitDy=0;entryX=1;entryY=0.5;entryDx=0;entryDy=0;strokeColor=#000000;fontColor=#000000;endArrow=classic;endFill=1;" edge="1" parent="1" source="468" target="494">
                    <mxGeometry relative="1" as="geometry">
                        <Array as="points">
                            <mxPoint x="-576" y="1028"/>
                        </Array>
                    </mxGeometry>
                </mxCell>
                <mxCell id="468" value="&lt;font color=&quot;#000000&quot;&gt;Good Replays&lt;/font&gt;" style="rounded=1;whiteSpace=wrap;html=1;fillColor=none;strokeColor=#000000;" vertex="1" parent="1">
                    <mxGeometry x="-666" y="737" width="120" height="60" as="geometry"/>
                </mxCell>
                <mxCell id="491" style="edgeStyle=none;html=1;exitX=0.25;exitY=1;exitDx=0;exitDy=0;strokeColor=#000000;fontColor=#000000;endArrow=classic;endFill=1;entryX=0.488;entryY=-0.006;entryDx=0;entryDy=0;entryPerimeter=0;" edge="1" parent="1" source="469" target="489">
                    <mxGeometry relative="1" as="geometry"/>
                </mxCell>
                <mxCell id="495" style="edgeStyle=none;html=1;exitX=0.75;exitY=1;exitDx=0;exitDy=0;entryX=0.75;entryY=0;entryDx=0;entryDy=0;strokeColor=#000000;fontColor=#000000;endArrow=classic;endFill=1;" edge="1" parent="1" source="469" target="493">
                    <mxGeometry relative="1" as="geometry"/>
                </mxCell>
                <mxCell id="469" value="&lt;font color=&quot;#000000&quot;&gt;Bad Replays&lt;/font&gt;" style="rounded=1;whiteSpace=wrap;html=1;fillColor=none;strokeColor=#000000;" vertex="1" parent="1">
                    <mxGeometry x="-826" y="737" width="120" height="60" as="geometry"/>
                </mxCell>
                <mxCell id="482" value="" style="curved=1;endArrow=none;html=1;strokeColor=#000000;fontColor=#000000;exitX=1;exitY=0.5;exitDx=0;exitDy=0;endFill=0;" edge="1" parent="1" source="462" target="462">
                    <mxGeometry width="50" height="50" relative="1" as="geometry">
                        <mxPoint x="-543" y="665" as="sourcePoint"/>
                        <mxPoint x="-565" y="571" as="targetPoint"/>
                        <Array as="points">
                            <mxPoint x="-523" y="650"/>
                            <mxPoint x="-527" y="618"/>
                            <mxPoint x="-557" y="614"/>
                        </Array>
                    </mxGeometry>
                </mxCell>
                <mxCell id="484" value="" style="endArrow=classic;html=1;strokeColor=#000000;fontColor=#000000;" edge="1" parent="1">
                    <mxGeometry width="50" height="50" relative="1" as="geometry">
                        <mxPoint x="-620" y="680" as="sourcePoint"/>
                        <mxPoint x="-644" y="706" as="targetPoint"/>
                    </mxGeometry>
                </mxCell>
                <mxCell id="485" value="" style="curved=1;endArrow=none;html=1;strokeColor=#000000;fontColor=#000000;exitX=1;exitY=0.5;exitDx=0;exitDy=0;endFill=0;" edge="1" parent="1">
                    <mxGeometry width="50" height="50" relative="1" as="geometry">
                        <mxPoint x="-705.4" y="664" as="sourcePoint"/>
                        <mxPoint x="-736.0000000000001" y="634" as="targetPoint"/>
                        <Array as="points">
                            <mxPoint x="-682.4" y="650"/>
                            <mxPoint x="-686.4" y="618"/>
                            <mxPoint x="-716.4" y="614"/>
                        </Array>
                    </mxGeometry>
                </mxCell>
                <mxCell id="487" value="" style="endArrow=classic;html=1;strokeColor=#000000;fontColor=#000000;" edge="1" parent="1">
                    <mxGeometry width="50" height="50" relative="1" as="geometry">
                        <mxPoint x="-780" y="682" as="sourcePoint"/>
                        <mxPoint x="-803.9999999999998" y="707.9999999999999" as="targetPoint"/>
                    </mxGeometry>
                </mxCell>
                <mxCell id="505" style="edgeStyle=none;html=1;exitX=0;exitY=0.75;exitDx=0;exitDy=0;strokeColor=#000000;fontColor=#000000;endArrow=classic;endFill=1;entryX=1;entryY=0.5;entryDx=0;entryDy=0;" edge="1" parent="1" source="488" target="506">
                    <mxGeometry relative="1" as="geometry">
                        <mxPoint x="-1030.9130434782608" y="1061.7826086956522" as="targetPoint"/>
                    </mxGeometry>
                </mxCell>
                <mxCell id="488" value="&lt;font color=&quot;#000000&quot;&gt;Similarity Cohort&lt;/font&gt;" style="rounded=1;whiteSpace=wrap;html=1;fillColor=none;strokeColor=#000000;" vertex="1" parent="1">
                    <mxGeometry x="-980" y="806" width="120" height="341" as="geometry"/>
                </mxCell>
                <mxCell id="490" style="edgeStyle=none;html=1;exitX=0;exitY=0.5;exitDx=0;exitDy=0;strokeColor=#000000;fontColor=#000000;endArrow=classic;endFill=1;entryX=1;entryY=0.083;entryDx=0;entryDy=0;entryPerimeter=0;" edge="1" parent="1" source="489" target="488">
                    <mxGeometry relative="1" as="geometry">
                        <mxPoint x="-862" y="832" as="targetPoint"/>
                    </mxGeometry>
                </mxCell>
                <mxCell id="489" value="Bad States" style="text;html=1;strokeColor=none;fillColor=none;align=center;verticalAlign=middle;whiteSpace=wrap;rounded=0;fontColor=#000000;" vertex="1" parent="1">
                    <mxGeometry x="-828" y="819" width="66" height="30" as="geometry"/>
                </mxCell>
                <mxCell id="504" style="edgeStyle=none;html=1;exitX=1;exitY=0.5;exitDx=0;exitDy=0;entryX=1;entryY=0.5;entryDx=0;entryDy=0;strokeColor=#000000;fontColor=#000000;endArrow=classic;endFill=1;" edge="1" parent="1" source="493" target="501">
                    <mxGeometry relative="1" as="geometry">
                        <Array as="points">
                            <mxPoint x="-676" y="897"/>
                            <mxPoint x="-675" y="1106"/>
                        </Array>
                    </mxGeometry>
                </mxCell>
                <mxCell id="493" value="&lt;font color=&quot;#000000&quot;&gt;Dissimilarity&lt;/font&gt;" style="rounded=1;whiteSpace=wrap;html=1;fillColor=none;strokeColor=#000000;" vertex="1" parent="1">
                    <mxGeometry x="-826" y="867" width="120" height="60" as="geometry"/>
                </mxCell>
                <mxCell id="503" style="edgeStyle=none;html=1;exitX=0.5;exitY=1;exitDx=0;exitDy=0;entryX=0.5;entryY=0;entryDx=0;entryDy=0;strokeColor=#000000;fontColor=#000000;endArrow=classic;endFill=1;" edge="1" parent="1" source="494" target="501">
                    <mxGeometry relative="1" as="geometry"/>
                </mxCell>
                <mxCell id="494" value="&lt;font color=&quot;#000000&quot;&gt;Similarity&lt;br&gt;&lt;/font&gt;" style="rounded=1;whiteSpace=wrap;html=1;fillColor=none;strokeColor=#000000;" vertex="1" parent="1">
                    <mxGeometry x="-826" y="999" width="120" height="60" as="geometry"/>
                </mxCell>
                <mxCell id="498" style="edgeStyle=none;html=1;exitX=0;exitY=0.5;exitDx=0;exitDy=0;entryX=1.002;entryY=0.473;entryDx=0;entryDy=0;entryPerimeter=0;strokeColor=#000000;fontColor=#000000;endArrow=classic;endFill=1;" edge="1" parent="1" source="497" target="488">
                    <mxGeometry relative="1" as="geometry"/>
                </mxCell>
                <mxCell id="497" value="Good States" style="text;html=1;strokeColor=none;fillColor=none;align=center;verticalAlign=middle;whiteSpace=wrap;rounded=0;fontColor=#000000;" vertex="1" parent="1">
                    <mxGeometry x="-833" y="952" width="71" height="30" as="geometry"/>
                </mxCell>
                <mxCell id="499" value="" style="endArrow=classic;html=1;strokeColor=#000000;fontColor=#000000;entryX=0;entryY=0.5;entryDx=0;entryDy=0;exitX=0.998;exitY=0.267;exitDx=0;exitDy=0;exitPerimeter=0;" edge="1" parent="1" source="488" target="493">
                    <mxGeometry width="50" height="50" relative="1" as="geometry">
                        <mxPoint x="-844" y="938" as="sourcePoint"/>
                        <mxPoint x="-739" y="873" as="targetPoint"/>
                    </mxGeometry>
                </mxCell>
                <mxCell id="500" value="" style="endArrow=classic;html=1;strokeColor=#000000;fontColor=#000000;entryX=0;entryY=0.5;entryDx=0;entryDy=0;exitX=1.002;exitY=0.655;exitDx=0;exitDy=0;exitPerimeter=0;" edge="1" parent="1" source="488" target="494">
                    <mxGeometry width="50" height="50" relative="1" as="geometry">
                        <mxPoint x="-858.0000000000001" y="1025.123" as="sourcePoint"/>
                        <mxPoint x="-824.12" y="1025" as="targetPoint"/>
                    </mxGeometry>
                </mxCell>
                <mxCell id="502" style="edgeStyle=none;html=1;exitX=0;exitY=0.5;exitDx=0;exitDy=0;entryX=0.994;entryY=0.881;entryDx=0;entryDy=0;entryPerimeter=0;strokeColor=#000000;fontColor=#000000;endArrow=classic;endFill=1;" edge="1" parent="1" source="501" target="488">
                    <mxGeometry relative="1" as="geometry"/>
                </mxCell>
                <mxCell id="501" value="&lt;font color=&quot;#000000&quot;&gt;Model Selector&lt;/font&gt;" style="rounded=1;whiteSpace=wrap;html=1;fillColor=none;strokeColor=#000000;" vertex="1" parent="1">
                    <mxGeometry x="-826" y="1076" width="120" height="60" as="geometry"/>
                </mxCell>
                <mxCell id="526" style="edgeStyle=none;html=1;exitX=0;exitY=0.5;exitDx=0;exitDy=0;entryX=1;entryY=0.5;entryDx=0;entryDy=0;strokeColor=#000000;fontColor=#000000;endArrow=classic;endFill=1;" edge="1" parent="1" source="506" target="524">
                    <mxGeometry relative="1" as="geometry"/>
                </mxCell>
                <mxCell id="506" value="Offspring&lt;br&gt;(most similar)" style="text;html=1;strokeColor=none;fillColor=none;align=center;verticalAlign=middle;whiteSpace=wrap;rounded=0;fontColor=#000000;" vertex="1" parent="1">
                    <mxGeometry x="-1083" y="1046" width="77" height="30" as="geometry"/>
                </mxCell>
                <mxCell id="508" style="edgeStyle=none;html=1;exitX=1;exitY=0.5;exitDx=0;exitDy=0;entryX=0;entryY=0.25;entryDx=0;entryDy=0;strokeColor=#000000;fontColor=#000000;endArrow=classic;endFill=1;" edge="1" parent="1" source="507" target="488">
                    <mxGeometry relative="1" as="geometry"/>
                </mxCell>
                <mxCell id="507" value="Individual&lt;br&gt;Models" style="text;html=1;strokeColor=none;fillColor=none;align=center;verticalAlign=middle;whiteSpace=wrap;rounded=0;fontColor=#000000;" vertex="1" parent="1">
                    <mxGeometry x="-1105" y="876" width="99" height="30" as="geometry"/>
                </mxCell>
                <mxCell id="511" style="edgeStyle=none;html=1;exitX=1;exitY=0.5;exitDx=0;exitDy=0;entryX=0;entryY=0.5;entryDx=0;entryDy=0;strokeColor=#000000;fontColor=#000000;endArrow=classic;endFill=1;" edge="1" parent="1" source="509" target="510">
                    <mxGeometry relative="1" as="geometry"/>
                </mxCell>
                <mxCell id="516" style="edgeStyle=none;html=1;exitX=0.5;exitY=1;exitDx=0;exitDy=0;entryX=0.5;entryY=0;entryDx=0;entryDy=0;strokeColor=#000000;fontColor=#000000;endArrow=classic;endFill=1;" edge="1" parent="1" source="509" target="514">
                    <mxGeometry relative="1" as="geometry"/>
                </mxCell>
                <mxCell id="509" value="&lt;font color=&quot;#000000&quot;&gt;Population/Speciation&lt;/font&gt;" style="rounded=1;whiteSpace=wrap;html=1;fillColor=none;strokeColor=#000000;" vertex="1" parent="1">
                    <mxGeometry x="-1424" y="390" width="120" height="60" as="geometry"/>
                </mxCell>
                <mxCell id="512" style="edgeStyle=none;html=1;exitX=1;exitY=0.5;exitDx=0;exitDy=0;entryX=0.5;entryY=0;entryDx=0;entryDy=0;strokeColor=#000000;fontColor=#000000;endArrow=classic;endFill=1;" edge="1" parent="1" source="510" target="465">
                    <mxGeometry relative="1" as="geometry">
                        <Array as="points">
                            <mxPoint x="-430" y="423"/>
                        </Array>
                    </mxGeometry>
                </mxCell>
                <mxCell id="513" style="edgeStyle=none;html=1;exitX=1;exitY=0.5;exitDx=0;exitDy=0;entryX=0.5;entryY=0;entryDx=0;entryDy=0;strokeColor=#000000;fontColor=#000000;endArrow=classic;endFill=1;" edge="1" parent="1" source="510" target="464">
                    <mxGeometry relative="1" as="geometry">
                        <Array as="points">
                            <mxPoint x="-687" y="422"/>
                        </Array>
                    </mxGeometry>
                </mxCell>
                <mxCell id="515" style="edgeStyle=none;html=1;exitX=0.5;exitY=1;exitDx=0;exitDy=0;entryX=0.5;entryY=0;entryDx=0;entryDy=0;strokeColor=#000000;fontColor=#000000;endArrow=classic;endFill=1;" edge="1" parent="1" source="510" target="537">
                    <mxGeometry relative="1" as="geometry">
                        <Array as="points"/>
                    </mxGeometry>
                </mxCell>
                <mxCell id="510" value="&lt;font color=&quot;#000000&quot;&gt;Fitness Evaluator&lt;/font&gt;" style="rounded=1;whiteSpace=wrap;html=1;fillColor=none;strokeColor=#000000;" vertex="1" parent="1">
                    <mxGeometry x="-1279" y="390" width="120" height="60" as="geometry"/>
                </mxCell>
                <mxCell id="518" style="edgeStyle=none;html=1;exitX=0.5;exitY=1;exitDx=0;exitDy=0;strokeColor=#000000;fontColor=#000000;endArrow=classic;endFill=1;entryX=0.5;entryY=0;entryDx=0;entryDy=0;" edge="1" parent="1" source="514" target="531">
                    <mxGeometry relative="1" as="geometry">
                        <mxPoint x="-1364" y="647" as="targetPoint"/>
                    </mxGeometry>
                </mxCell>
                <mxCell id="514" value="&lt;font color=&quot;#000000&quot;&gt;Selection&lt;/font&gt;" style="rounded=1;whiteSpace=wrap;html=1;fillColor=none;strokeColor=#000000;" vertex="1" parent="1">
                    <mxGeometry x="-1424" y="524" width="120" height="60" as="geometry"/>
                </mxCell>
                <mxCell id="520" style="edgeStyle=none;html=1;exitX=1;exitY=0.5;exitDx=0;exitDy=0;entryX=0;entryY=0.5;entryDx=0;entryDy=0;strokeColor=#000000;fontColor=#000000;endArrow=classic;endFill=1;" edge="1" parent="1" source="531" target="519">
                    <mxGeometry relative="1" as="geometry">
                        <mxPoint x="-1366" y="800" as="sourcePoint"/>
                    </mxGeometry>
                </mxCell>
                <mxCell id="523" style="edgeStyle=none;html=1;exitX=0.5;exitY=1;exitDx=0;exitDy=0;entryX=0.5;entryY=0;entryDx=0;entryDy=0;strokeColor=#000000;fontColor=#000000;endArrow=classic;endFill=1;" edge="1" parent="1" source="531" target="522">
                    <mxGeometry relative="1" as="geometry">
                        <mxPoint x="-1364" y="707" as="sourcePoint"/>
                    </mxGeometry>
                </mxCell>
                <mxCell id="521" style="edgeStyle=none;html=1;exitX=1;exitY=0.5;exitDx=0;exitDy=0;entryX=0;entryY=0.5;entryDx=0;entryDy=0;strokeColor=#000000;fontColor=#000000;endArrow=classic;endFill=1;" edge="1" parent="1" source="519" target="507">
                    <mxGeometry relative="1" as="geometry">
                        <Array as="points">
                            <mxPoint x="-1134" y="800"/>
                            <mxPoint x="-1134" y="891"/>
                        </Array>
                    </mxGeometry>
                </mxCell>
                <mxCell id="519" value="&lt;font color=&quot;#000000&quot;&gt;Crossover &amp;amp; Mutation&lt;/font&gt;" style="rounded=1;whiteSpace=wrap;html=1;fillColor=none;strokeColor=#000000;" vertex="1" parent="1">
                    <mxGeometry x="-1279" y="770" width="120" height="60" as="geometry"/>
                </mxCell>
                <mxCell id="525" style="edgeStyle=none;html=1;exitX=0.5;exitY=1;exitDx=0;exitDy=0;entryX=0.5;entryY=0;entryDx=0;entryDy=0;strokeColor=#000000;fontColor=#000000;endArrow=classic;endFill=1;" edge="1" parent="1" source="522" target="524">
                    <mxGeometry relative="1" as="geometry"/>
                </mxCell>
                <mxCell id="522" value="&lt;font color=&quot;#000000&quot;&gt;Mutation&lt;/font&gt;" style="rounded=1;whiteSpace=wrap;html=1;fillColor=none;strokeColor=#000000;" vertex="1" parent="1">
                    <mxGeometry x="-1424" y="886" width="120" height="60" as="geometry"/>
                </mxCell>
                <mxCell id="529" style="edgeStyle=none;html=1;exitX=0;exitY=0.5;exitDx=0;exitDy=0;entryX=1;entryY=0.5;entryDx=0;entryDy=0;strokeColor=#000000;fontColor=#000000;endArrow=classic;endFill=1;" edge="1" parent="1" source="524" target="528">
                    <mxGeometry relative="1" as="geometry">
                        <mxPoint x="-1352" y="1059" as="sourcePoint"/>
                    </mxGeometry>
                </mxCell>
                <mxCell id="524" value="&lt;font color=&quot;#000000&quot;&gt;New Generation&lt;/font&gt;" style="rounded=1;whiteSpace=wrap;html=1;fillColor=none;strokeColor=#000000;" vertex="1" parent="1">
                    <mxGeometry x="-1424" y="1029" width="120" height="60" as="geometry"/>
                </mxCell>
                <mxCell id="530" style="edgeStyle=none;html=1;exitX=0.5;exitY=0;exitDx=0;exitDy=0;strokeColor=#000000;fontColor=#000000;endArrow=classic;endFill=1;entryX=0;entryY=0.5;entryDx=0;entryDy=0;" edge="1" parent="1" source="528" target="509">
                    <mxGeometry relative="1" as="geometry">
                        <mxPoint x="-1441" y="409" as="targetPoint"/>
                        <Array as="points">
                            <mxPoint x="-1499" y="419"/>
                        </Array>
                    </mxGeometry>
                </mxCell>
                <mxCell id="532" style="edgeStyle=none;html=1;exitX=0.5;exitY=1;exitDx=0;exitDy=0;strokeColor=#000000;fontColor=#000000;endArrow=classic;endFill=1;entryX=0.5;entryY=0;entryDx=0;entryDy=0;" edge="1" parent="1" source="528" target="533">
                    <mxGeometry relative="1" as="geometry">
                        <mxPoint x="-1503.142857142857" y="1169" as="targetPoint"/>
                    </mxGeometry>
                </mxCell>
                <mxCell id="528" value="&lt;font color=&quot;#000000&quot;&gt;Criteria&lt;/font&gt;" style="rhombus;whiteSpace=wrap;html=1;fillColor=none;strokeColor=#000000;" vertex="1" parent="1">
                    <mxGeometry x="-1543" y="1019" width="80" height="80" as="geometry"/>
                </mxCell>
                <mxCell id="531" value="Elite" style="text;html=1;strokeColor=none;fillColor=none;align=center;verticalAlign=middle;whiteSpace=wrap;rounded=0;fontColor=#000000;" vertex="1" parent="1">
                    <mxGeometry x="-1394" y="785" width="60" height="30" as="geometry"/>
                </mxCell>
                <mxCell id="533" value="&lt;font color=&quot;#000000&quot;&gt;Best Individual&lt;/font&gt;" style="rounded=1;whiteSpace=wrap;html=1;fillColor=none;strokeColor=#000000;" vertex="1" parent="1">
                    <mxGeometry x="-1563" y="1136" width="120" height="60" as="geometry"/>
                </mxCell>
                <mxCell id="539" style="edgeStyle=none;html=1;exitX=0.5;exitY=1;exitDx=0;exitDy=0;entryX=1;entryY=0.5;entryDx=0;entryDy=0;strokeColor=#82b366;fontColor=#000000;endArrow=classic;endFill=1;fillColor=#d5e8d4;dashed=1;" edge="1" parent="1" source="536" target="537">
                    <mxGeometry relative="1" as="geometry">
                        <Array as="points">
                            <mxPoint x="-965" y="556"/>
                        </Array>
                    </mxGeometry>
                </mxCell>
                <mxCell id="541" style="edgeStyle=none;html=1;exitX=0.5;exitY=1;exitDx=0;exitDy=0;entryX=0;entryY=0.75;entryDx=0;entryDy=0;dashed=1;strokeColor=#82b366;fontColor=#000000;endArrow=classic;endFill=1;fillColor=#d5e8d4;" edge="1" parent="1" source="536" target="468">
                    <mxGeometry relative="1" as="geometry">
                        <Array as="points">
                            <mxPoint x="-965" y="352"/>
                            <mxPoint x="-686" y="355"/>
                            <mxPoint x="-685" y="781"/>
                        </Array>
                    </mxGeometry>
                </mxCell>
                <mxCell id="542" style="edgeStyle=none;html=1;exitX=0.5;exitY=1;exitDx=0;exitDy=0;entryX=1;entryY=0.75;entryDx=0;entryDy=0;dashed=1;strokeColor=#82b366;fontColor=#000000;endArrow=classic;endFill=1;fillColor=#d5e8d4;" edge="1" parent="1" source="536" target="469">
                    <mxGeometry relative="1" as="geometry">
                        <Array as="points">
                            <mxPoint x="-965" y="352"/>
                            <mxPoint x="-686" y="355"/>
                            <mxPoint x="-685" y="781"/>
                        </Array>
                    </mxGeometry>
                </mxCell>
                <mxCell id="543" style="edgeStyle=none;html=1;exitX=0.5;exitY=1;exitDx=0;exitDy=0;entryX=0.5;entryY=0;entryDx=0;entryDy=0;dashed=1;strokeColor=#82b366;fontColor=#000000;endArrow=classic;endFill=1;fillColor=#d5e8d4;" edge="1" parent="1" source="536" target="510">
                    <mxGeometry relative="1" as="geometry">
                        <Array as="points">
                            <mxPoint x="-964" y="352"/>
                            <mxPoint x="-1219" y="352"/>
                        </Array>
                    </mxGeometry>
                </mxCell>
                <mxCell id="544" style="edgeStyle=none;html=1;exitX=0.5;exitY=1;exitDx=0;exitDy=0;dashed=1;strokeColor=#82b366;fontColor=#000000;endArrow=classic;endFill=1;entryX=1;entryY=0.5;entryDx=0;entryDy=0;fillColor=#d5e8d4;" edge="1" parent="1" source="536" target="522">
                    <mxGeometry relative="1" as="geometry">
                        <mxPoint x="-1053.642857142857" y="670.6428571428571" as="targetPoint"/>
                        <Array as="points">
                            <mxPoint x="-965" y="556"/>
                            <mxPoint x="-1051" y="556"/>
                            <mxPoint x="-1051" y="919"/>
                        </Array>
                    </mxGeometry>
                </mxCell>
                <mxCell id="545" style="edgeStyle=none;html=1;exitX=0.5;exitY=1;exitDx=0;exitDy=0;dashed=1;strokeColor=#82b366;fontColor=#000000;endArrow=classic;endFill=1;entryX=0.5;entryY=0;entryDx=0;entryDy=0;fillColor=#d5e8d4;" edge="1" parent="1" source="536" target="488">
                    <mxGeometry relative="1" as="geometry">
                        <mxPoint x="-957.2142857142856" y="731.3571428571429" as="targetPoint"/>
                        <Array as="points">
                            <mxPoint x="-965" y="555"/>
                            <mxPoint x="-922" y="556"/>
                        </Array>
                    </mxGeometry>
                </mxCell>
                <mxCell id="555" style="edgeStyle=none;html=1;exitX=0.5;exitY=1;exitDx=0;exitDy=0;entryX=0.5;entryY=0;entryDx=0;entryDy=0;dashed=1;strokeColor=#82b366;fontSize=13;fontColor=#000000;endArrow=classic;endFill=1;fillColor=#d5e8d4;" edge="1" parent="1" source="536" target="509">
                    <mxGeometry relative="1" as="geometry">
                        <Array as="points">
                            <mxPoint x="-964" y="353"/>
                            <mxPoint x="-1364" y="351"/>
                        </Array>
                    </mxGeometry>
                </mxCell>
                <mxCell id="558" style="edgeStyle=none;html=1;exitX=0.5;exitY=1;exitDx=0;exitDy=0;entryX=0;entryY=0;entryDx=0;entryDy=0;dashed=1;strokeColor=#82b366;fontSize=13;fontColor=#000000;endArrow=classic;endFill=1;fillColor=#d5e8d4;" edge="1" parent="1" source="536" target="528">
                    <mxGeometry relative="1" as="geometry">
                        <Array as="points">
                            <mxPoint x="-964" y="352"/>
                            <mxPoint x="-1520" y="352"/>
                        </Array>
                    </mxGeometry>
                </mxCell>
                <mxCell id="536" value="&lt;font style=&quot;font-size: 20px;&quot; color=&quot;#000000&quot;&gt;ATGEN Config&lt;/font&gt;" style="rounded=1;whiteSpace=wrap;html=1;fillColor=#d5e8d4;strokeColor=#82b366;" vertex="1" parent="1">
                    <mxGeometry x="-1503" y="196" width="1078" height="86" as="geometry"/>
                </mxCell>
                <mxCell id="538" style="edgeStyle=none;html=1;exitX=0;exitY=0.5;exitDx=0;exitDy=0;entryX=1;entryY=0.5;entryDx=0;entryDy=0;strokeColor=#000000;fontColor=#000000;endArrow=classic;endFill=1;" edge="1" parent="1" source="537" target="514">
                    <mxGeometry relative="1" as="geometry"/>
                </mxCell>
                <mxCell id="537" value="&lt;font color=&quot;#000000&quot;&gt;Fitness/Shared Fitness&lt;/font&gt;" style="rounded=1;whiteSpace=wrap;html=1;fillColor=none;strokeColor=#000000;" vertex="1" parent="1">
                    <mxGeometry x="-1279" y="524" width="120" height="60" as="geometry"/>
                </mxCell>
                <mxCell id="547" value="&lt;font color=&quot;#ff6666&quot;&gt;Replay Buffer&lt;/font&gt;" style="text;html=1;strokeColor=none;fillColor=none;align=center;verticalAlign=middle;whiteSpace=wrap;rounded=0;dashed=1;fontColor=#000000;" vertex="1" parent="1">
                    <mxGeometry x="-589" y="1121" width="60" height="30" as="geometry"/>
                </mxCell>
                <mxCell id="548" value="&lt;font style=&quot;font-size: 13px;&quot; color=&quot;#000000&quot;&gt;Difficulty&lt;/font&gt;" style="text;html=1;fillColor=none;align=center;verticalAlign=middle;whiteSpace=wrap;rounded=0;dashed=1;fontSize=20;" vertex="1" parent="1">
                    <mxGeometry x="-1249" y="324" width="60" height="30" as="geometry"/>
                </mxCell>
                <mxCell id="550" value="&lt;font style=&quot;font-size: 13px;&quot; color=&quot;#000000&quot;&gt;Fitness Mode&lt;/font&gt;" style="text;html=1;fillColor=none;align=center;verticalAlign=middle;whiteSpace=wrap;rounded=0;dashed=1;fontSize=20;" vertex="1" parent="1">
                    <mxGeometry x="-1146" y="524" width="81" height="30" as="geometry"/>
                </mxCell>
                <mxCell id="551" value="&lt;font style=&quot;font-size: 13px;&quot; color=&quot;#000000&quot;&gt;Elitism&lt;/font&gt;" style="text;html=1;fillColor=none;align=center;verticalAlign=middle;whiteSpace=wrap;rounded=0;dashed=1;fontSize=20;" vertex="1" parent="1">
                    <mxGeometry x="-1306" y="886" width="81" height="30" as="geometry"/>
                </mxCell>
                <mxCell id="552" value="&lt;font style=&quot;font-size: 13px;&quot; color=&quot;#000000&quot;&gt;Cohort size&lt;/font&gt;" style="text;html=1;fillColor=none;align=center;verticalAlign=middle;whiteSpace=wrap;rounded=0;dashed=1;fontSize=20;" vertex="1" parent="1">
                    <mxGeometry x="-998" y="765" width="81" height="30" as="geometry"/>
                </mxCell>
                <mxCell id="553" value="&lt;font style=&quot;font-size: 13px;&quot; color=&quot;#000000&quot;&gt;Memory size&lt;/font&gt;" style="text;html=1;fillColor=none;align=center;verticalAlign=middle;whiteSpace=wrap;rounded=0;dashed=1;fontSize=20;" vertex="1" parent="1">
                    <mxGeometry x="-728.5" y="789" width="81" height="30" as="geometry"/>
                </mxCell>
                <mxCell id="554" value="&lt;font style=&quot;font-size: 13px;&quot; color=&quot;#000000&quot;&gt;Speciation level&lt;br&gt;&lt;/font&gt;" style="text;html=1;fillColor=none;align=center;verticalAlign=middle;whiteSpace=wrap;rounded=0;dashed=1;fontSize=20;" vertex="1" parent="1">
                    <mxGeometry x="-1410" y="327" width="99.5" height="30" as="geometry"/>
                </mxCell>
                <mxCell id="556" value="&lt;font style=&quot;font-size: 13px;&quot; color=&quot;#000000&quot;&gt;Yes&lt;/font&gt;" style="text;html=1;fillColor=none;align=center;verticalAlign=middle;whiteSpace=wrap;rounded=0;dashed=1;fontSize=20;" vertex="1" parent="1">
                    <mxGeometry x="-1514" y="1094" width="60" height="30" as="geometry"/>
                </mxCell>
                <mxCell id="557" value="&lt;font style=&quot;font-size: 13px;&quot; color=&quot;#000000&quot;&gt;No&lt;/font&gt;" style="text;html=1;fillColor=none;align=center;verticalAlign=middle;whiteSpace=wrap;rounded=0;dashed=1;fontSize=20;" vertex="1" parent="1">
                    <mxGeometry x="-1517" y="969" width="60" height="30" as="geometry"/>
                </mxCell>
                <mxCell id="559" value="&lt;font style=&quot;font-size: 13px;&quot; color=&quot;#000000&quot;&gt;Generation number&lt;br&gt;/Fitness Value&lt;br&gt;&lt;/font&gt;" style="text;html=1;fillColor=none;align=center;verticalAlign=middle;whiteSpace=wrap;rounded=0;dashed=1;fontSize=20;" vertex="1" parent="1">
                    <mxGeometry x="-1629" y="324" width="126" height="54" as="geometry"/>
                </mxCell>
                <mxCell id="560" value="" style="rounded=0;whiteSpace=wrap;html=1;dashed=1;fontSize=13;fillColor=none;strokeColor=none;" vertex="1" parent="1">
                    <mxGeometry x="-1653" y="138" width="1320" height="1113" as="geometry"/>
                </mxCell>
            </root>
        </mxGraphModel>
    </diagram>
</mxfile>